<svg xmlns="http://www.w3.org/2000/svg" width="1280" height="320" viewBox="0 0 1280 320" role="img" aria-labelledby="title description">
  <title id="title">UNIVERSE</title>
  <desc id="description">A clean dark wordmark with a diagram connecting Linux, Windows and macOS to one execution engine.</desc>
  <rect width="1280" height="320" rx="20" fill="#111815"/>
  <path d="M64 58h40" stroke="#c7e7a7" stroke-width="3"/>
  <text x="120" y="64" fill="#b1bab2" font-family="monospace" font-size="16" letter-spacing="2">UNIVERSAL BINARY RUNTIME</text>
  <text x="58" y="175" fill="#f5f3e9" font-family="Georgia,serif" font-size="108" letter-spacing="-5">UNIVERSE</text>
  <text x="64" y="230" fill="#b1bab2" font-family="Georgia,serif" font-size="26">Foreign software. One shared engine.</text>
  <path d="M64 276h660" stroke="#303d34"/>
  <g fill="none" stroke="#526653" stroke-width="1.5">
    <path d="M820 108h60l44 52h52M820 160h156M820 212h60l44-52"/>
    <rect x="976" y="128" width="64" height="64" rx="14" stroke="#c7e7a7"/>
    <path d="M1040 160h76"/>
    <circle cx="1132" cy="160" r="16"/>
    <path d="M1008 128v-18m0 82v18m-32-50h-18m82 0h18" stroke="#c7e7a7"/>
  </g>
  <g fill="#f5f3e9" font-family="monospace" font-size="19">
    <text x="794" y="91">LINUX</text>
    <text x="776" y="151">WINDOWS</text>
    <text x="794" y="244">macOS</text>
  </g>
  <path d="m993 152 8 8-8 8m14 0h16" fill="none" stroke="#c7e7a7" stroke-width="3" stroke-linecap="round" stroke-linejoin="round"/>
  <circle cx="1132" cy="160" r="4" fill="#c7e7a7"/>
</svg>
